<svg xmlns="http://www.w3.org/2000/svg" viewBox="0 0 230 86" width="225" height="81">

  <g>
    <line x1="205" y1="15" x2="225" y2="43" stroke="#ad9268" stroke-width="1"/>
    <line x1="210" y1="33" x2="225" y2="43" stroke="#ad9268" stroke-width="1"/>
    <line x1="210" y1="53" x2="225" y2="43" stroke="#ad9268" stroke-width="1"/>
    <line x1="205" y1="71" x2="225" y2="43" stroke="#ad9268" stroke-width="1"/>
  </g>

  <g fill="#bb0000" stroke="maroon" stroke-width="2">
    <rect x="25" y="5" width="180" height="20" rx="5" ry="5"/>
    <rect x="20" y="23" width="190" height="20" rx="5" ry="5"/>
    <rect x="25" y="61" width="180" height="20" rx="5" ry="5"/>
    <rect x="20" y="43" width="190" height="20" rx="5" ry="5"/>
  </g>

  <g fill="#1f1f1f" stroke="#1f1f1f" stroke-width="2">
    <rect x="40" y="5" width="10" height="17"/>
    <rect x="35" y="23" width="10" height="20"/>
    <rect x="40" y="64" width="10" height="17"/>
    <rect x="35" y="43" width="10" height="20"/>
  </g>

  <g fill="#1f1f1f" stroke="#1f1f1f" stroke-width="2">
    <rect x="180" y="5" width="10" height="17"/>
    <rect x="185" y="23" width="10" height="20"/>
    <rect x="180" y="64" width="10" height="17"/>
    <rect x="185" y="43" width="10" height="20"/>
  </g>

  <rect x="70" y="18" width="90" height="50" fill="#3d3d3d" stroke="#6f6f6f" stroke-width="4"/>
  <rect x="160" y="41.5" width="70" height="3" fill="#8e7a5e" rx="2" ry="2"/>
  <line x1="160" y1="43" x2="163" y2="43" stroke="#6f6f6f" stroke-width="6"/>
  <line x1="223" y1="43" x2="225" y2="43" stroke="#1f1f1f" stroke-width="4"/>
</svg>
